<svg xmlns="http://www.w3.org/2000/svg" xml:space="preserve" width="263.069mm" height="263.069mm" version="1.1" style="shape-rendering:geometricPrecision; text-rendering:geometricPrecision; image-rendering:optimizeQuality; fill-rule:evenodd; clip-rule:evenodd" viewBox="0 0 26305.86 26305.86" xmlns:xlink="http://www.w3.org/1999/xlink" xmlns:xodm="http://www.corel.com/coreldraw/odm/2003">
 <defs>
  <style type="text/css">
   
    .fil3 {fill:#137FC2}
    .fil2 {fill:#1480C4}
    .fil0 {fill:#1482C6}
    .fil1 {fill:#1581C5}
   
  </style>
 </defs>
 <g id="Layer_x0020_1">
  <metadata id="CorelCorpID_0Corel-Layer"></metadata>
  <path class="fil0" d="M13152.93 0c7264.16,0 13152.93,5888.77 13152.93,13152.93 0,7264.16 -5888.77,13152.93 -13152.93,13152.93 -7264.16,0 -13152.93,-5888.77 -13152.93,-13152.93 0,-7264.16 5888.77,-13152.93 13152.93,-13152.93zm0 1000.46c6711.62,0 12152.47,5440.85 12152.47,12152.47 0,6711.62 -5440.85,12152.47 -12152.47,12152.47 -6711.62,0 -12152.47,-5440.85 -12152.47,-12152.47 0,-6711.62 5440.85,-12152.47 12152.47,-12152.47z"></path>
  <path class="fil1" d="M19797.57 8170.35c280.69,475.19 824.41,1553.67 1026.21,2022.24 152.92,355.09 307.34,703.36 449.66,1074.3 764.91,1993.56 1270.52,4270.96 756.8,6447.88 -712.6,3019.74 -3401.08,4897.02 -6865.87,5326.32 -1808.34,224.05 -3780.07,36.31 -5401.65,-500.61 -1167.85,-386.68 -2209.45,-890.28 -3135.21,-1622.81l-208.76 -172.01c-32.64,-28.08 -76.35,-59.9 -106.21,-88.92 -40.88,-39.73 -60.85,-49.58 -97.24,-88.75 -32.16,-34.63 -70.52,-56.59 -101.88,-93.03l-283.13 -284.02c-39.73,-34.56 -57.47,-66.95 -93.06,-101.84 -125.29,-122.83 -406.18,-482.23 -509.38,-633.42 -200.48,-293.76 -396.66,-604.56 -554.63,-969.35 -339.34,-783.61 -526.86,-1575.27 -505.35,-2545.3 31.75,-1431.59 555.27,-2890.58 1226.38,-4110.46 46.27,-84.09 88.13,-163.29 136.74,-243.99 45.12,-74.9 96.75,-183.33 146.27,-244.56 4.17,483.01 6.39,818.55 158.85,1291.12 137.56,426.38 309.35,702.03 547.36,984.87 191.62,227.73 506.15,462.61 781.39,581.88 378.68,164.08 768.81,238.64 1230.19,183.14 867.33,-104.33 1430.68,-532.26 1675.29,-1220.3 504.72,-1419.72 -310.99,-3637.6 192.68,-5318.7 396.4,-1323.09 1248.55,-1562.81 2171.6,-2171.67 149.99,-98.94 292.57,-195.77 417.44,-302.37 21.17,-18.07 28.66,-22.72 46.95,-37.89 229.95,-190.72 471.43,-483.5 616.7,-746.07 244.87,-442.59 350.74,-922.05 386.74,-1431.08 8.1,-114.56 3.52,-241.94 14.65,-351.86 161.26,132.09 401.29,437.83 512.23,627.39 531.22,907.74 502.82,1876.67 384.32,2926.82 -154.3,1367.4 -479.46,2834.49 282.9,3906.84 293.92,413.45 723.74,732.68 1321.81,972.61 607.09,243.56 1276.39,345.23 1855.54,3.69 742.65,-437.95 1061.87,-1309.57 1305.95,-2139.61 43.22,-147 81.58,-306.56 115.42,-460.57 16.06,-73.05 83.98,-435.15 102.29,-469.91zm-5742.71 15669.75l-857.96 0c-38.68,-1.89 -53.52,-8.87 -102.52,-8.66 -227.86,0.95 -460.22,-32.5 -685.9,-42.2 -65.46,-2.81 -147.97,-12.49 -215.29,-21.77 -77.04,-10.61 -137.71,-13.4 -214.1,-22.96 -482.25,-60.35 -960.58,-138.51 -1424.89,-251.43 -127.13,-30.92 -252.84,-63.61 -379.17,-94.95 -478.56,-118.73 -831.7,-252.4 -1274.83,-409.96 -172.82,-61.46 -344.16,-135.33 -510.39,-209.25 -111.74,-49.69 -219.6,-96.54 -324.58,-149.54 -212.04,-107.06 -427.08,-203.63 -631.43,-325.26 -201.82,-120.13 -404.34,-235.37 -599.61,-365.55l-492.6 -345.58 -398.81 -320.82c-14.08,-11.83 -16.1,-15.49 -31.63,-27.63l-637.54 -615.48c-138.42,-143.81 -268.07,-297.41 -392.9,-453.73l-443.98 -631.23c-33.36,-54.47 -58.86,-98.95 -91.93,-153.6 -31.82,-52.58 -54.32,-98.49 -85.86,-151.19 -111.31,-185.98 -230.11,-443.23 -310.81,-645.89 -141.7,-355.91 -261.83,-719.46 -342.62,-1096.66 -28.76,-134.27 -54.04,-266.56 -74.78,-407.8l-48.24 -425.87c-2.59,-19.99 -4.56,-40.87 -6.04,-62.41l0 -414.13 0 -24.87 0 -179.54c0.53,-410.7 7.75,-682.64 85.76,-1140.64 90.4,-530.73 185.09,-842.45 334.51,-1350.29 65.19,-221.55 171.53,-482.73 258.34,-698.35l216.38 -503.26c63.85,-149.58 253.47,-534.48 317.34,-639.36 17.28,-28.37 27.8,-52.31 43.42,-83.58 15.94,-31.91 26.73,-44.58 42.54,-75.99 28.14,-55.89 54.38,-99.14 84.35,-152.71 171.28,-306.22 350.51,-602.87 542.73,-896.54 94.69,-144.67 186.11,-291.84 287.93,-431.7l502 -691.75c72.79,-96.98 1397.51,-1881.4 1441.68,-1910.98 -4.15,49.85 -196.61,526.82 -229.85,616.78 -151.73,410.6 -320.77,813.56 -467.55,1225.72 -110.9,311.38 -248.64,612.98 -337.29,932.66l-89.63 333.69c-52.51,209.16 -77.41,419 -108.24,636.79l-11.72 199.95c0.04,46.59 -6.71,54.39 -8.79,92.81 -7.37,136.43 8.22,271.19 17.27,406.12 16.11,240.19 71.48,471.69 155.64,690.99 21.5,56.03 42.2,98.54 64.08,147.58 117.54,263.54 290.41,484.8 506.83,661.52 79.53,64.94 168.84,113.86 256.76,166.55 26.6,15.95 40.18,18.52 69.13,32.47 426.24,205.29 986.7,172.29 1402.41,-14.12 394.61,-176.96 589.23,-536.35 650.47,-1042.78 86.94,-718.74 -18.77,-1477.78 -74.18,-2200.23l-26.23 -397.08c-1.52,-137.16 -17.34,-273.39 -16.66,-406.65 4.34,-842.38 38.54,-1492.87 326.63,-2213.39 146.89,-367.41 353.84,-688.33 611.15,-980.52 81.38,-92.42 176.99,-174.52 266.55,-258.36 166.68,-156.02 421.11,-331.36 611.11,-447.19 262.91,-160.28 533.81,-313.37 793.92,-476.03 45.58,-28.5 80.71,-54.46 128.09,-83.56 86.1,-52.85 166.63,-114.43 244.73,-178.59 24.17,-19.86 36.33,-29.15 59.44,-50.62 21.69,-20.17 33.25,-24.73 55.18,-46.42l160.76 -160.95c226.18,-223.56 388.53,-593.07 466.07,-905.47 29.33,-118.17 46.38,-227.22 64.55,-358.78 49.12,-355.68 40.81,-880.09 -1.24,-1208.3 -8.17,-63.75 -15.11,-133.97 -19.06,-192.59l-37.77 -385.55c-9.08,-65.04 -8.38,-132.29 -21.79,-189.86l604.6 385.95c132.78,86.91 257.83,172.27 382.38,269.53 32.45,25.33 58.58,46.28 89.45,71.42 147.59,120.21 290.65,252.71 420.09,392.66 104.76,113.26 199.08,235.82 292.34,359.58l132.61 197.57c20.41,33.97 40.97,66.68 59.65,101.22 18.57,34.34 35.89,67.35 56.55,104.31 80.41,143.86 139.56,287.22 202.33,449.57 31.4,81.23 56.13,164.88 80.77,249.42 138.76,476.16 176.74,895.19 176.79,1448.74l-33.71 618.2c-15.38,310.97 -86.3,851.35 -130.8,1173 -13.78,99.53 -24.69,201.83 -36.22,293.97 -12.76,101.91 -17.14,188.86 -30.28,291.45 -12.39,96.74 -11.76,203.96 -25.3,304.89 -34.36,256.19 -16.58,697.95 16.66,927.75 125.05,864.81 603.75,1295.12 1351.12,1595.16 662.78,266.09 1188.67,246.8 1616.01,-334.95 171.55,-233.53 330.26,-568.5 431.44,-872.37 55.14,-165.55 112.42,-327.75 154.89,-497.02 66.36,-264.41 130.5,-530.7 183.56,-798.52 91.41,-461.36 154.14,-939.45 218.86,-1406.67l59.26 -431.8c6.54,-46.63 17.42,-94.3 17.42,-143.43 29.96,20.06 75.81,107.86 98.92,146.59 31.21,52.32 57.88,96.68 88.94,148.12l539.76 899.51c211.52,350.78 411.89,710.62 601.49,1074.85l793.16 1611.28c26.42,56.71 48.25,108.47 71.72,165.34l281.81 674.88c93.22,233.03 168.86,461.78 261.32,695.38 65.85,166.37 191.48,563.51 238.15,727l107.52 366.61c74,251.36 130.74,507.34 190.37,766.32 91.64,397.98 161.63,820.1 212.52,1226.75 9.8,78.29 13.31,142.92 24.26,221.27 9.17,65.69 17.33,155.12 20.38,216.68 11.09,224.45 34.16,458.19 34.02,685.61l0 3.7 0 3.71c-0.04,60.52 0,120.98 0,181.49l0 3.71 0 3.7 0 3.71 0 3.7 0 3.7 0 3.71 0 3.7 0 3.71 0 3.7 0 3.71 0 3.7 0 3.71 0 3.7 -8.66 236.85c0.64,157.62 -16.5,296.94 -24.96,449.16 -30.23,544.31 -190.92,1296.16 -359.03,1799.89 -83.99,251.66 -168.97,451.81 -266.51,690.18l-77.29 168.23c-231.86,470.76 -504.17,909.35 -830.94,1319.51 -38.2,47.94 -69.8,88.46 -110.94,134.59l-339.17 380.47c-69.18,82.76 -163.58,155.84 -240.91,233.2 -159.28,159.34 -336.99,302.72 -514.99,441.7 -181.6,141.79 -364.54,270.92 -557.28,399.41 -99.67,66.45 -192.84,123.56 -296.6,185.99l-307.95 174.62c-113.4,69.05 -276.23,146.7 -396.62,204.49l-244.87 110.71c-59.28,24.61 -111.13,49.5 -170.56,74.97 -58.77,25.19 -107.32,44.72 -168.05,69.01l-343.26 130.85c-121.18,40.35 -234.06,85.51 -360.02,122.57 -64.63,19.01 -122.68,36.21 -181.9,55.16 -186.29,59.58 -372.95,104.82 -566.18,153.45 -391.8,98.64 -1031.61,219.95 -1430.58,254.22 -68.86,5.91 -145.4,18.86 -212.62,24.43 -257.5,21.36 -528.74,50.89 -786.93,51.24 -46.3,0.06 -59.17,7.05 -97.34,8.76z"></path>
  <path class="fil2" d="M9592.24 15545.38c-80.25,-811.69 530.84,-1453.71 1250.72,-1521.96 813.25,-77.11 1449.94,531.71 1519.07,1251.98 77.72,809.87 -532.47,1449.92 -1253.59,1518.38 -809.59,76.85 -1445.25,-530.88 -1516.2,-1248.4zm150.59 1098.5c-68.45,-68.44 -138.79,-147.39 -193.51,-229.81 -80.21,-120.81 -87.38,-130.66 -153,-261.83 -128.66,-257.14 -163.58,-498.7 -163.58,-810.05 0,-154.38 34.12,-301.98 67.7,-423.35 204.58,-739.51 886.46,-1129.31 1556.79,-1355.63l742.51 -231.11c125.86,-35.71 244.8,-81.37 367.63,-114.96 216.79,-59.29 516.7,-165.35 741.98,-231.64l1111.07 -345.15c394.93,-123.42 887.08,-73.99 1245.75,102.55 186.29,91.7 353,211.67 497.43,357.67 22.91,23.15 28.31,36.69 50.54,59.53 23.49,24.12 30.12,33.31 51.07,59 52.07,63.85 133.66,179.35 171.38,251.93 80.54,154.96 137.1,277.43 175.63,459.34 29.42,138.9 43.88,271.35 44.38,398.4l0 3.49c0.79,414.89 -147.42,772.17 -409.91,1107.99 -54.7,69.98 -115.26,121.62 -172.21,174.91 -157.79,147.66 -369.9,277.65 -595.77,352.47l-3352.66 1126.01c-583.01,194.26 -1379.67,-46.24 -1783.19,-449.76zm2655.14 -219.05c30.37,-54.62 66.52,-102.58 100.36,-162.12 30.59,-53.82 60.85,-117.01 86.24,-176.35 52.8,-123.4 95.49,-271.13 117.1,-416.21 111.15,-746.01 -236.8,-1389.14 -838.9,-1764.26 -111.51,-69.46 -235.61,-116.11 -370.57,-164.68 52.99,-28.44 2193.62,-686.44 2250.33,-704.3 215.54,-67.9 377.52,-120.78 629.29,-109.32 211.97,9.65 420.65,69.99 581.62,156.68 917.82,494.36 1009.74,1739.91 167.25,2363.33 -149.86,110.89 -303.18,166.12 -509.45,235.6 -369.77,124.54 -735.17,247.1 -1102.87,370.3 -183.1,61.35 -367.94,123.81 -551.1,185.49 -93.35,31.44 -186.2,62.63 -278.72,93.79 -87.97,29.61 -192.39,69.82 -280.59,92.06z"></path>
  <path class="fil2" d="M18288.96 19582.17c-46.04,336.17 -302.89,595.53 -517.19,720.1 -1045.55,607.81 -2421.55,-33.51 -2290.86,-953.13 93.64,-658.93 882.22,-990.37 1527.37,-948.16 355.22,23.24 696.54,156.43 902.05,330.93 250.9,213.03 428.46,486.35 378.62,850.27zm-1369.05 -1451.14c735.54,0 1349.33,351.54 1492.13,819.07l1597.35 -5486.1c63.47,-367.59 -100.01,-620.55 -328.61,-845.65 -36.71,-36.15 -115.48,-92.59 -170.4,-126.01 -63.24,-38.49 -126.33,-71.73 -200.09,-104.81 -729.99,-327.42 -1684.59,-99.66 -2033.95,705.38 -79.47,183.11 -483.6,1642.44 -547.18,1866.06 -2.68,9.4 -815.69,2839.1 -1019.59,3575.49 278.4,-245.25 716.95,-403.43 1210.34,-403.43zm1606.24 -6202.41l185.53 0c105.52,4.78 211.32,17.7 316.09,38.8 304.22,61.28 543.2,167.35 791.16,351.81 71.35,53.07 136.12,118.38 198.16,182.81l87.29 107.45c221.48,307.14 297.87,663.19 188.89,1036.88 -156.47,536.85 -1660.95,6187.76 -1931.8,6551.46 -18.09,24.3 -27.06,33.54 -45.78,55.81 -201.96,240.2 -456.77,394.09 -761.23,500.26 -184.88,64.47 -377.84,99 -570.66,106.7l-167.68 0c-406.4,-16.1 -801.44,-148.36 -1107.12,-367.63 -78.58,-56.36 -193.42,-162.77 -255.07,-235.97 -550.3,-653.4 -46.93,-1814.94 160.2,-2552.51l1104.32 -3873.88c64.67,-223.83 140.13,-512.73 211.37,-728.38 116.13,-351.52 371.24,-677.68 670.26,-879.07 268.67,-180.94 591.87,-279.22 926.06,-294.52z"></path>
  <path class="fil3" d="M13279.51 19915.75c727.22,-39.29 1333.51,489.55 1377.87,1156.53 48.24,725.19 -545.82,1277.17 -1225.52,1315.66 -732.07,41.45 -1341.33,-487.03 -1385.15,-1159.07 -47.32,-725.55 548.76,-1276.16 1232.8,-1313.12zm57.65 -230.44c55.74,0 110.79,2.48 165.05,7.27l-1196.39 -643.15c-738.61,-385.28 -1496.97,-803.37 -2238.82,-1199.02l-561.46 -301.92c-73.5,-36.51 -116.63,-69.81 -180.76,-106.9 -256.9,-148.55 -590.66,-227.24 -938.15,-163.43 -428.3,78.66 -800.15,359.76 -965.27,753.56 -257.52,614.19 49.81,1285.67 574.51,1542.96 186.51,91.46 163.06,61.59 387.44,188.12 478.35,269.76 1010.39,547.19 1477.55,817.05 244.45,141.2 492.9,271.01 740.3,410.84l1346.59 741.45c-131.63,-199.37 -206.84,-429.85 -206.84,-675.45 0,-757.39 714.67,-1371.37 1596.26,-1371.37zm50.73 3062.63l-61.45 0c-176.13,-3.47 -354.89,-36.89 -546.59,-100.52 -53.24,-17.67 -1313.69,-773.56 -1457.93,-853.37 -40.69,-21.7 -69.71,-37.03 -109.95,-59.38l-740.71 -410.71c-169.61,-103.06 -456.18,-249.06 -636.98,-353.58l-911.17 -502.7c-236.3,-126.05 -754.73,-433.65 -909.91,-495.49 -42.72,-17.02 -71.2,-28.83 -111.69,-49.18 -374.33,-188.2 -644.26,-442.05 -812.49,-838.45 -88.38,-208.23 -115.98,-389.1 -115.98,-637.52 0,-175.11 57.38,-422.12 132.62,-578.55 11.17,-23.21 18.32,-44.4 28.72,-64.41 21,-40.4 48.71,-88.74 74.06,-129.14 94.58,-150.79 89.6,-125.09 176.95,-229.42l264.89 -234.62c20.88,-14.74 36.86,-28.31 59.68,-41.93 401.46,-239.57 767.94,-316.41 1238.18,-239.85 282.6,46.01 467.95,152.22 698.61,291.95 71.12,43.07 150.38,75.99 221.39,117.26l429.43 230.94c40.92,20.38 67.19,37.91 110.07,59.27l1828.5 982.31c275.07,139.38 584.33,315.65 866.63,462.59l648.84 350.18c21.54,10.92 35.77,16.63 56.46,28.21 546.87,306.06 1207.97,1078.3 1207.97,1687.51 0,358.68 -137.77,751.31 -353.4,992.74 -87.9,98.41 -147.45,166.75 -256.18,251.8 -21.52,16.84 -32.38,27.47 -57.46,44.14 -22.33,14.85 -40.38,26.7 -61.07,40.53 -80.9,54.09 -166.26,102.48 -264.86,141.53 -221.21,87.62 -427.22,133.7 -635.19,137.85z"></path>
 </g>
</svg>