<svg xmlns="http://www.w3.org/2000/svg" xml:space="preserve" width="257.12mm" height="257.12mm" version="1.1" style="shape-rendering:geometricPrecision; text-rendering:geometricPrecision; image-rendering:optimizeQuality; fill-rule:evenodd; clip-rule:evenodd" viewBox="0 0 25710.94 25710.94" xmlns:xlink="http://www.w3.org/1999/xlink" xmlns:xodm="http://www.corel.com/coreldraw/odm/2003">
 <defs>
  <style type="text/css">
    .fil0 {fill:#1581C5}
  </style>
 </defs>
 <g id="Layer_x0020_1">
  <metadata id="CorelCorpID_0Corel-Layer"></metadata>
  <path class="fil0" d="M12855.47 0c7099.88,0 12855.47,5755.59 12855.47,12855.47 0,7099.88 -5755.59,12855.47 -12855.47,12855.47 -7099.88,0 -12855.47,-5755.59 -12855.47,-12855.47 0,-7099.88 5755.59,-12855.47 12855.47,-12855.47zm0 709.28c6708.15,0 12146.19,5438.04 12146.19,12146.19 0,6708.15 -5438.04,12146.19 -12146.19,12146.19 -6708.15,0 -12146.19,-5438.04 -12146.19,-12146.19 0,-6708.15 5438.04,-12146.19 12146.19,-12146.19zm116.69 9535.64l2593.27 78.19 -3087.32 2616.59 2000.42 968.34 -3470.51 3108.19 2056.03 -2996.32 -2084.56 -1106.67 1992.68 -2668.32zm-7725.18 -3058.47c109.29,-57.83 97.29,-76.47 252.85,-128.13 552.65,-183.52 1305.77,120.03 1825.01,327.71l431.78 169.32c84.55,33.82 529.29,201.85 589.03,206.82 -7.55,28.25 -34.78,48.87 -53.31,73.69 -21.2,28.4 -35.5,51.21 -55.09,80.38 -146.89,218.67 -196.39,440.19 -196.39,717.96 -61.38,0 -137.76,17.4 -203.01,17.11l-406.56 8.29c-492.1,0 -1049.53,-130.1 -1425.93,-402.79 -190.96,-138.33 -377.53,-320.66 -498.63,-525.8 -79.8,-135.18 -133.91,-229.26 -196.91,-378.78l-62.84 -165.76zm7126.7 -5325.31l25.65 0 2.64 0c42.36,0.13 84.74,0.02 127.09,0l15.88 0c418.92,0 841.78,13.81 1257.82,71.39 197.55,27.35 378.5,49.23 574.49,85.89l551.77 117.08c542.62,136.99 987.08,279.58 1510.45,487.6 233.4,92.78 462.16,201.48 685.75,313.28 645.94,322.97 1253.26,719.76 1813,1175.61l530.08 468.95c101.33,102.25 412.48,409.62 489.57,509.45l153.34 176.84c102.21,121.44 197.18,239.97 292.89,367.48l278.67 390.17c221.61,333.12 313,517.23 492.07,837.15 40.57,72.47 70.71,149.79 107.36,222.83l103.02 227.17c71.92,177.87 -7.11,303.59 -134.26,410.42l-134.39 111.14c-379.21,296.29 -778.93,570.88 -1211.55,786.5 -565.16,281.69 -978.44,423.4 -1582.59,576.32 -420.02,106.31 -920.29,166.13 -1426.47,182.83l-592.41 0c-252.5,-8.37 -499.08,-27.44 -730.12,-56.78 -857.04,-108.84 -1378.36,-227.77 -2200.54,-457.89 -343.32,-96.09 -674.01,-215.27 -1011,-326.68 -86.17,-28.49 -168.16,-59.56 -249.77,-88.88 -346.02,-124.34 -861.36,-319.89 -1192.9,-466.5l-466.63 -193.74c-547.12,-225.84 -1087.45,-463.52 -1630.41,-697.82l-708.66 -290.37c-497.83,-189.32 -984.33,-374.37 -1511.1,-478.48 -198.81,-39.29 -369.15,-57.29 -610.42,-58.53 -128.35,-0.66 -418.12,42.75 -524.86,135.51l199.42 -29.17c61.71,-8.96 151.49,-13.15 215.46,-13.24 319.28,-0.46 841.85,117.04 1139.34,232.24 58.15,22.52 109.77,38.19 168.04,60.56 305.68,117.33 871.55,348.12 1157.35,442.78 238.66,79.06 442.66,148.05 723.46,190.9 86.73,13.23 114.09,16.38 173.04,55.54 103.62,68.83 155.25,168.27 144.84,296.98 -10.6,130.99 -83.4,210.93 -190.13,267.61 -52.68,27.97 -95.29,53.59 -142.92,85.67 -82.6,55.63 -179.19,138.98 -240.26,216.92 -237.93,303.65 -94.08,551.25 -96.14,724.98 -1.45,122.6 -95.72,235.21 -183.98,273.32 -78.87,34.06 -493.85,81.63 -603.84,81.94l-218.89 9.7c-67.82,7.61 -141.41,7.21 -221.36,7.23 -361.69,0.09 -854.7,-64.87 -1186.36,-185.18 -55.39,-20.09 -111.49,-39.14 -165.36,-63.23 -136.32,-60.96 -168.04,-72.86 -301.91,-146.8 -140.41,-77.57 -469.43,-317.56 -576.58,-456.31l-107.7 -120.9c-17.59,-21.6 -31.8,-39.42 -48.43,-61.64 -211.25,-282.36 -353.09,-550.87 -470,-901.53 -42.77,-128.27 -94.36,-249.12 -59.33,-370.49 40.49,-140.28 166.07,-203.1 197.98,-250.74 -50.43,-33.77 -89.54,-71.16 -118.72,-126.81 -108.34,-206.72 25.27,-342.34 139.03,-513.24l361.83 -501.74c109.01,-145.69 231.36,-281.13 329.04,-407.53 16.37,-21.18 34.24,-42.62 53.29,-65.24l114.77 -130.76c19.99,-25.06 41.79,-40.15 61.79,-65.21l538.34 -553.81c25.72,-25.85 42.84,-34.06 68.02,-58.98l592.17 -508.46c73.62,-54.6 207.07,-163.63 276.69,-205.9 102.83,-62.43 284.06,-45.85 445.38,-45.66 94.82,0.12 143.61,-10.94 229.82,-1.24 66.81,7.52 173.23,1.24 244.29,1.24 103.02,0 624.89,16.51 707.6,28.97 64.19,9.68 155.9,13.36 223.69,13.36 -20.89,-13.26 -41.32,-12.84 -67.67,-16.99l-497.18 -87c-192.94,-31.62 -323.88,-142.51 -306.96,-361.42 15.16,-196.09 193.44,-257.94 338.43,-330.43 379.16,-189.58 773.78,-349.25 1175.74,-483.66l515.72 -153.12c84.6,-21.74 176.77,-44.77 264.16,-66.03 173.88,-42.28 364.68,-80.87 549.19,-111.19 188.03,-30.89 390.14,-60.05 586.92,-81.92 52.77,-5.87 101.6,-7.2 154.45,-14.88l620.99 -37.44zm-6906.58 4537.94l-16.51 9.74 16.51 -9.74zm3572.78 -2793.88l42.34 0 0 8.47c-6.28,0 -18.88,0.61 -24.66,-0.74 -16.36,-3.82 -8.9,-2.16 -17.68,-7.73zm516.45 -558.78c107.95,-25.15 267.2,-98.6 384.55,-131.88 136.9,-38.83 257.24,-81.46 399.33,-117.12 429.41,-107.79 858.52,-193.85 1305.78,-243.56 242.46,-26.95 478.71,-49.29 721.15,-49.28l194.79 0.01c35.69,-2.06 30.24,-7.59 59.2,-7.59 29.44,0 72.16,7.77 118.51,7.6l618.05 25.39c179.44,5.63 529.15,55.59 695.49,83.41 406.49,67.98 873.22,156.55 1261.34,287.99l389.42 127.03c258.81,85.72 503.7,190.45 746.39,294.96 576.76,248.35 1212.32,619.41 1712.59,996.63l781.29 649.53c61.66,49.19 326.89,308.86 388.2,382.21l212.02 236.7c16.2,17.42 15.67,20.64 30.07,37.66l347 431.9c183.87,244.97 352.62,509.65 510.43,776.46 16.82,28.43 32.49,54.78 46.04,80.96 16.52,31.9 30.59,55.36 47.92,87.55 44.84,83.27 152.6,269.08 172.1,352.81 -30.96,8.26 -71.25,49.36 -99.15,70.17 -230.42,171.91 -463.21,336.14 -716.23,477.53l-163.93 90.06c-246.85,132.89 -500.71,243.7 -762.26,346.82 -716.13,282.34 -1579.69,403.9 -2356.12,403.9 -81.27,0 -343.84,-1.83 -411.27,-12.04l-401.49 -30.29c-60.79,-3.73 -127.03,-11.79 -191.09,-20.57 -71.2,-9.75 -125.54,-15.04 -195.86,-24.26 -818.84,-107.33 -1638.49,-324.07 -2420.67,-584.88 -531.07,-177.08 -1051.57,-370.67 -1570.76,-579.69 -103.05,-41.49 -201.67,-84.48 -305.89,-125.89 -813.93,-323.41 -1599.95,-697.67 -2414.12,-1023.2 -861.07,-344.29 -1777.3,-723.26 -2722.53,-723.26 47.88,-71.51 114.44,-143.88 175.8,-205.18 21.07,-21.05 23.85,-29.94 42.27,-50.86 74.02,-84.06 158.82,-157.54 232.69,-241.42 90.04,-102.25 191.99,-191.02 287.9,-287.81l198.82 -182.16c102.37,-99.42 404.12,-339.05 521.87,-426.36 63.72,-47.26 378.2,-28.55 454.03,-28.55 868.85,0 1640.24,79.28 2446.15,246.13 285.87,59.19 616.83,131.59 894.87,222.69 205.9,67.46 493.6,139.51 682.96,214.47l332.6 116.12c58.59,22.69 108.86,38.9 166.89,61.69 440.62,173.03 835.26,316.64 1287.99,506.88l637.43 259.99c215.81,86.38 426.16,173.9 638.62,258.82 918.07,366.9 1687.98,645.58 2628.6,961.1 121.35,40.71 1280.4,411.65 1391.68,411.65 99.05,0 181.75,-25.69 243.65,-86.54 155.06,-152.42 118.22,-420.84 -79.7,-517.68 -95.72,-46.83 -431.25,-133.82 -567.94,-185.56 -29.27,-11.07 -50.93,-17.98 -81.8,-28.27 -363.32,-121.04 -883.62,-323.04 -1238.56,-488.56 -49.94,-23.29 -94.67,-45.5 -145.53,-66.13 -273.44,-110.91 -754.49,-362.77 -1019.96,-495.5l-1718.67 -880.5c-197.51,-98.76 -523.07,-261.31 -728.85,-346.37 -204.08,-84.36 -399.38,-178.7 -603.57,-260 -54.15,-21.56 -107.04,-45.56 -156,-64.12 -209.18,-79.32 -413.91,-166.51 -626.32,-237.25 -106.99,-35.62 -214.02,-73.93 -319.66,-112.13l-325.88 -105.9c-446.61,-145.83 -897.87,-260 -1353.23,-373.89l-697.55 -157.55c-1.7,-0.59 -4.67,-1.94 -6.02,-2.44 -1.34,-0.5 -4.08,-1.43 -5.89,-2.58zm12197.57 6499.63c-4.56,123.55 17.58,122.48 -15.44,283.05 -117.39,570.37 -756.84,1070.82 -1196.32,1416.65l-362.54 289.28c-71.55,56.31 -439.44,357.45 -473.61,406.69 -20.69,-20.66 -24.94,-54.55 -37.17,-83.01 -13.99,-32.56 -26.59,-56.35 -42.07,-87.9 -115.93,-236.55 -283.02,-390.17 -523.57,-529.06 30.69,-53.16 53.81,-128.01 86.69,-184.36l196.1 -356.26c246.04,-426.16 637.44,-843.85 1061.8,-1033.49 215.28,-96.21 466.46,-166.62 704.66,-168.92 156.97,-1.51 265.51,-1.34 426.49,18.86l174.97 28.46zm1048.52 8834.56l-12.84 22.22 -1.31 2.29c-21.29,36.6 -42.38,73.37 -63.54,110.06l-7.94 13.76c-209.46,362.8 -432.85,722.09 -690.74,1053.61 -122.46,157.41 -231.88,303.18 -361.62,454.58l-377.28 419.3c-389.94,401.42 -735.66,715.05 -1177.49,1064.29 -197.05,155.74 -405.57,299.5 -614.17,437.24 -602.68,397.92 -1249.97,725.47 -1924.61,982.29l-671.17 224.6c-139.2,36.61 -560.99,152.4 -685.97,169.24l-229.83 44.38c-156.26,27.79 -306.4,50.78 -464.69,69.91l-477.23 46.24c-399.29,25.37 -604.44,12.46 -971.02,7.58 -83.06,-1.1 -165.08,-13.66 -246.66,-18.45l-248.25 -24.36c-190,-26.66 -259.36,-157.95 -288.3,-321.5l-29.06 -171.95c-66.98,-476.55 -104.92,-960.01 -75.35,-1442.49 38.63,-630.27 122.54,-1059.05 292.2,-1658.72 117.95,-416.89 316.28,-880.06 554.9,-1326.78l296.21 -513.04c133.48,-214.49 273.29,-418.49 414.21,-603.91 522.79,-687.8 886.45,-1079.83 1496.83,-1676.79 254.87,-249.27 523.44,-476.07 788.41,-712.21 67.76,-60.37 135.66,-115.85 201.85,-171.85 280.7,-237.49 707.71,-586.02 1000.45,-799.84l401.11 -307.25c469.13,-360.9 945.14,-709.99 1419.53,-1063.07l605.81 -468.54c412.86,-336.47 816.37,-665.26 1169.92,-1069.41 133.42,-152.53 234.19,-291.05 355.9,-499.38 64.75,-110.84 172.03,-383.47 145.06,-522.3l-74.45 187.29c-23.1,57.92 -64.37,137.76 -96.27,193.22 -159.24,276.72 -522.27,670.53 -770.8,870.56 -48.58,39.1 -87.96,75.97 -136.47,115.26 -254.44,206.06 -737.25,580.73 -962.13,780.92 -187.78,167.14 -349.55,309.32 -527.06,531.07 -54.81,68.5 -71.22,90.63 -134.61,122.09 -111.42,55.32 -223.35,50.32 -329.61,-23.05 -108.16,-74.67 -140.98,-177.68 -136.69,-298.46 2.11,-59.62 1.24,-109.32 -2.73,-166.61 -6.88,-99.36 -30.77,-224.67 -67.73,-316.53 -144,-357.88 -430.35,-357.11 -579.79,-445.76 -105.46,-62.55 -155.83,-200.49 -144.7,-295.98 9.93,-85.34 176.23,-468.51 230.95,-563.92l101.06 -194.41c27.31,-62.53 64.46,-126.07 104.41,-195.32 180.77,-313.28 483.54,-707.76 753.57,-934.82 45.08,-37.93 89.63,-76.99 137.43,-111.6 120.96,-87.58 147.11,-109.11 278.08,-188.05 137.38,-82.83 509.73,-247.77 683.47,-271.17l158.54 -32.83c27.5,-4.43 50.05,-7.83 77.6,-11.13 350.16,-41.77 653.61,-30.35 1015.75,43.75 132.47,27.1 262.93,42.84 350.53,133.86 101.24,105.2 92.85,245.37 118.16,296.83 54.45,-26.79 106.4,-41.98 169.18,-39.41 233.19,9.55 283.84,193.05 374.95,377.02l253.61 564.23c71.69,167.24 127.78,340.93 188.41,488.71 10.17,24.77 19.8,50.97 29.86,78.78l55.86 164.76c11.71,29.85 13.88,56.28 25.59,86.12l210.44 743.13c9.52,35.2 8.07,54.11 17.07,88.39l144.24 767.06c10.48,91.06 38.18,261.14 39.98,342.57 2.65,120.27 -102.33,268.93 -183.15,408.54 -47.51,82.05 -62.34,129.84 -113.84,199.64 -39.92,54.11 -87.69,149.41 -123.21,210.95 -51.51,89.21 -326.75,532.92 -378.89,598.32 -40.47,50.75 -89.53,128.33 -123.41,187.04 21.93,-11.46 31.78,-29.36 48.56,-50.11l323.92 -387.06c123.86,-151.29 285.37,-209.23 466.48,-85.13 162.24,111.18 126.65,296.49 116.94,458.29 -25.39,423.17 -84.43,844.74 -169,1260.05l-125.24 523.19c-23.47,84.14 -49.63,175.47 -74.91,261.79 -50.33,171.72 -112.31,356.26 -178.29,531.21 -67.28,178.28 -143.08,367.88 -222.53,549.24 -21.29,48.63 -44.56,91.59 -64.34,141.19l-278.07 556.52zm-476.69 -8250.24l-0.18 -19.16 0.18 19.16zm633.18 4491.06l-21.17 36.67 -7.34 -4.24c3.14,-5.44 8.92,-16.65 12.97,-20.99 11.5,-12.26 6.33,-6.63 15.54,-11.44zm225.7 726.64c-32.2,106.06 -48.22,280.71 -78.08,398.98 -34.81,137.97 -58.07,263.51 -98.24,404.39 -121.35,425.76 -261.38,840.43 -441.96,1252.62 -97.88,223.44 -196.67,439.21 -317.9,649.17l-97.4 168.68c-16.07,31.93 -8.55,29.99 -23.03,55.06 -14.73,25.51 -42.81,58.61 -65.85,98.84l-331 522.56c-94.6,152.58 -312.73,430.45 -419.99,560.6 -262.11,318.05 -572.19,677.96 -880.06,948.36l-304.73 273.74c-203.64,181.27 -416.79,340.99 -628.63,498.91 -503.47,375.31 -1142.59,740.19 -1719.4,984.84l-953.17 351.84c-73.43,28.81 -430.92,128.67 -525.11,145.09l-310.99 65.27c-23.19,5.32 -25.72,3.25 -47.66,7.21l-547.54 84.56c-304.08,36.75 -617.67,50.55 -927.64,53.82 -33.02,0.34 -63.69,0.74 -93.14,-0.61 -35.88,-1.64 -63.24,-1.19 -99.77,-2.27 -94.53,-2.81 -309.34,-2.39 -391.59,-27.36 8.33,-30.94 -7.13,-86.39 -11.2,-120.97 -33.67,-285.49 -59.5,-569.21 -55.44,-859.02l3.99 -187c8.33,-280.22 39.29,-555.47 80.78,-833.54 113.55,-761.36 440.05,-1570.02 828.26,-2242.42 40.64,-70.38 173.51,-296.86 216.07,-350.16l226.98 -332.57c33.62,-50.77 73.73,-104.12 113.36,-155.2 44.04,-56.78 75.8,-101.21 118.94,-157.48 502.38,-655.47 1099.89,-1256.95 1716.86,-1803.93 418.89,-371.37 846.8,-725.35 1287.41,-1070.48 87.45,-68.49 173.98,-132.41 261.96,-201.95 687.05,-543.18 1404.18,-1036.78 2093.18,-1579.09 728.7,-573.58 1515.01,-1177.55 1987.62,-1996.14 37.99,77.21 67.4,171.04 89.79,254.84 7.71,28.77 14.01,35.62 22.93,62.03 35.78,106.13 57.02,216.31 92.73,322.22 43.53,129.1 69.43,261.79 105.3,393.24l58.34 263.26c34.93,138.36 91.58,519.51 108.32,665.13 9.06,78.81 -164.38,341.81 -202.29,407.48 -434.43,752.45 -888.77,1380.85 -1436.23,1995.36 -194.19,217.98 -422.38,468.39 -640.28,663.63 -161.37,144.59 -367.62,357.73 -527.23,484.23l-266.85 229.99c-48.95,39.38 -88.12,74.82 -136.87,113.69 -370.15,295.07 -691.85,565.03 -1082.97,861.98l-543.87 422.04c-182.72,143.7 -363.69,282.11 -543.47,423.65 -776.78,611.62 -1403.07,1139.04 -2146.62,1795.89 -95.95,84.74 -996.72,903.02 -1052.36,999.41 -49.52,85.78 -68.63,170.25 -46.88,254.27 54.47,210.5 305.36,312.81 488.17,189.82 88.42,-59.48 331.52,-306.57 444.66,-399.06 24.23,-19.82 41.05,-35.12 65.39,-56.71 286.48,-254.12 721.57,-603.72 1042.39,-828.34 45.13,-31.62 86.74,-59.24 130.03,-92.99 232.76,-181.34 691.41,-472.02 939.1,-635.55l1621.86 -1048.16c184.27,-121.66 487.84,-322.34 664.38,-458.02 175.1,-134.55 354.46,-256.52 526.95,-392.7 45.76,-36.11 92.98,-69.92 133.53,-103.05 173.28,-141.49 351.17,-275.2 518.63,-423.78 84.34,-74.85 171.03,-148.38 256.93,-220.77l254.64 -229.27c349.61,-313.86 674.11,-647.58 1000.43,-984.99l485.23 -525.32c1.35,-1.18 4,-3.07 5.12,-3.99 1.1,-0.91 3.28,-2.82 5.18,-3.82zm-11761.76 7180.19c-104.74,-65.73 -114.87,-46.03 -237.41,-154.91 -435.25,-386.83 -548.93,-1190.83 -628.68,-1744.37l-69.27 -458.59c-12.98,-90.13 -89.84,-559.3 -115.39,-613.52 28.23,-7.58 59.7,5.69 90.46,9.33 35.19,4.17 62.11,5.14 97.16,7.52 262.83,17.88 479.41,-50.01 719.96,-188.89 30.7,53.15 83.95,110.6 116.34,167.25l210.45 347.96c246.05,426.15 412.09,973.95 364.13,1436.29 -24.32,234.54 -88.94,487.27 -206.04,694.72 -77.17,136.68 -131.57,230.6 -229.58,359.93l-112.13 137.29zm-8175.21 -3509.25l-12.82 -22.22 -1.31 -2.29c-21.08,-36.75 -42.36,-73.38 -63.56,-110.07l-7.94 -13.74c-209.46,-362.81 -408.92,-735.9 -567.09,-1125 -75.1,-184.75 -146.62,-352.4 -212.86,-540.47l-174.5 -536.38c-152.66,-538.42 -251.41,-994.63 -332.95,-1551.89 -36.36,-248.52 -56.58,-500.98 -71.57,-750.51 -43.27,-720.89 -3.29,-1445.24 111.61,-2157.91l141.08 -693.53c37.89,-138.87 148.51,-562.03 196.4,-678.71l76.5 -221.22c54.07,-149.23 109.24,-290.75 171.8,-437.4l198.56 -436.4c177.69,-358.49 291.44,-529.68 478.96,-844.72 42.48,-71.38 94.37,-136.14 139.3,-204.4l145.22 -202.79c118.09,-151.22 266.47,-145.64 422.57,-88.94l163.44 60.83c446.19,180.26 883.85,389.12 1286.9,655.97 526.53,348.6 855.89,635.65 1290.41,1082.42 302.07,310.6 604.03,713.93 871.56,1143.95l296.22 513.02c118.99,222.87 225.77,445.95 315.88,660.7 334.27,796.65 491.93,1307.58 703.72,2134.66 88.45,345.37 150.59,691.34 222.59,1038.89 18.41,88.88 32.5,175.41 47.93,260.75 65.31,361.83 153.64,905.91 192.43,1266.33l65.55 500.99c77.97,586.74 142.28,1173.51 210.86,1760.89l102.88 758.92c84.96,525.78 167.93,1039.64 341.17,1547.88 65.39,191.82 134.95,348.35 254.52,557.91 63.61,111.49 246.09,340.73 379.79,386.78l-124.97 -158.12c-38.6,-48.96 -87.15,-124.62 -119.19,-179.97 -160.04,-276.27 -319.58,-787.57 -368.56,-1102.82 -9.56,-61.62 -21.8,-114.15 -31.57,-175.8 -51.22,-323.39 -134.29,-928.84 -195.21,-1223.7 -50.87,-246.19 -93.11,-457.37 -196.41,-721.98 -31.9,-81.72 -42.85,-107 -38.42,-177.61 7.81,-124.15 68.11,-218.59 184.76,-273.93 118.75,-56.32 224.37,-33.24 326.84,30.85 50.55,31.64 94.05,55.72 145.64,80.94 89.48,43.72 209.96,85.7 307.99,99.62 381.93,54.22 524.44,-194.15 675.92,-279.24 106.91,-60.06 251.56,-34.71 328.7,22.68 68.92,51.28 317.61,386.87 372.87,481.96l117.85 184.72c40.51,54.93 76.95,118.87 116.95,188.09 180.91,313.18 371.17,772.63 432.8,1120 10.29,58.01 21.85,116.11 27.93,174.82 15.38,148.54 20.93,181.96 23.82,334.87 3.03,160.38 -40.31,565.32 -106.9,727.48l-50.84 153.71c-9.92,26.04 -18.25,47.24 -29.19,72.76 -138.88,324.14 -300.52,581.22 -545.73,857.79 -89.71,101.19 -168.58,206.29 -291.22,236.64 -141.72,35.07 -258.92,-42.28 -316.13,-46.09 -4.03,60.55 -16.85,113.12 -50.47,166.22 -124.85,197.17 -309.11,149.27 -513.99,136.2l-615.43 -62.49c-180.68,-21.55 -359.16,-59.8 -517.45,-81.18 -26.53,-3.59 -54.04,-8.34 -83.15,-13.53l-170.63 -34.01c-31.7,-4.79 -55.66,-16.12 -87.35,-20.91l-748.79 -189.32c-35.25,-9.35 -50.92,-20.06 -85.09,-29.41l-736.43 -258.6c-84.09,-36.46 -245.24,-97.52 -316.66,-136.66 -105.48,-57.83 -181.73,-223.07 -262.23,-362.89 -47.3,-82.17 -81.28,-118.91 -115.99,-198.41 -26.89,-61.61 -85.54,-150.63 -121.08,-212.18 -51.51,-89.21 -298.15,-549.42 -328.7,-627.28 -23.72,-60.43 -66.39,-141.68 -100.29,-200.41 -1.04,24.73 9.54,42.21 19.12,67.11l173.25 474.07c69.1,182.89 38.52,351.75 -159.5,446.54 -177.4,84.92 -320.12,-38.56 -455.38,-127.87 -353.78,-233.58 -689.34,-495.49 -1006.74,-776.4l-390.47 -370.05c-61.12,-62.4 -127.15,-130.7 -189.25,-195.76 -123.55,-129.44 -252.37,-275.39 -370.88,-420.01 -120.77,-147.4 -247.08,-307.86 -364.4,-467.33 -31.47,-42.76 -57.04,-84.39 -90.1,-126.31l-342.94 -519.08zm7383.27 3712.3l16.69 9.43 -16.69 -9.43zm-4205.97 -1697.19l-21.17 -36.66 7.34 -4.22c3.13,5.43 9.95,16.03 11.68,21.71 4.87,16.08 2.58,8.79 2.15,19.17zm-742.14 -167.86c-75.76,-80.91 -218.99,-182.1 -306.49,-267.09 -102.09,-99.15 -199.16,-182.03 -301.1,-287.27 -308.05,-318 -597.15,-646.58 -863.81,-1009.07 -144.56,-196.49 -282.04,-389.93 -403.25,-599.89l-97.39 -168.7c-19.63,-29.88 -21.69,-22.38 -36.17,-47.47 -14.73,-25.5 -29.36,-66.38 -52.68,-106.43l-287.03 -547.95c-84.86,-158.22 -216.44,-486.06 -275.53,-644.02 -144.37,-386.01 -301.03,-834.51 -381.24,-1236.33l-84.71 -400.77c-55.18,-267 -86.92,-531.45 -117.76,-793.88 -73.31,-623.65 -69.73,-1359.6 6.81,-1981.45l171.86 -1001.39c11.77,-77.99 104.03,-437.52 136.91,-527.31l98.97 -301.98c6.99,-22.72 10.05,-23.89 17.59,-44.87l200.54 -516.45c120.21,-281.71 265.06,-560.2 417.21,-830.27 16.21,-28.78 31.2,-55.53 47.1,-80.35 19.35,-30.27 32.64,-54.18 51.86,-85.27 49.69,-80.49 156.73,-266.71 219.47,-325.46 22.65,22.69 78.38,37.03 110.36,50.78 264.09,113.59 522.71,233.09 771.67,381.51l159.95 96.94c238.51,147.33 461.41,311.78 681.47,486.72 602.59,479.02 1139.65,1166.11 1527.87,1838.51 40.63,70.37 170.33,298.69 195.2,362.2l174.51 362.86c27.16,54.5 53.32,115.91 77.74,175.76 27.15,66.54 49.75,116.26 76.93,181.76 316.47,762.78 538.6,1581 703.81,2388.79 112.17,548.47 204.78,1096.02 283.36,1650.15 15.59,109.99 27.68,216.9 43.91,327.86 126.89,866.59 195.78,1734.44 320.96,2602.3 132.37,917.84 262.29,1900.8 734.89,2719.4 -85.86,-5.71 -181.81,-27.15 -265.59,-49.66 -28.76,-7.72 -37.85,-5.69 -65.18,-11.18 -109.81,-22.07 -215.85,-58.77 -325.42,-80.8 -133.56,-26.86 -261.43,-70.77 -393.2,-105.44l-257.16 -81.09c-137.28,-38.96 -495.68,-180.47 -630.18,-238.79 -72.79,-31.55 -213.82,-313.26 -251.73,-378.92 -434.44,-752.45 -751.48,-1460.13 -1009.93,-2241.5 -91.69,-277.16 -194.45,-599.99 -254.58,-886.32 -44.54,-212.04 -125.97,-497.23 -155.74,-698.69l-65.73 -346.1c-9.67,-62.09 -20.75,-113.72 -30.04,-175.37 -70.46,-468.11 -143.4,-881.67 -205.02,-1368.87l-93.57 -682.03c-33.09,-230.07 -62.48,-456.02 -95.17,-682.47 -141.27,-978.53 -284.9,-1784.62 -481.96,-2756.99 -25.43,-125.45 -283.7,-1314.69 -339.35,-1411.06 -49.52,-85.78 -113.11,-144.55 -196.76,-167.73 -209.53,-58.08 -423.55,108.05 -408.47,327.86 7.31,106.32 99.74,440.38 123.26,584.63 5.06,30.88 9.9,53.1 16.42,84.98 76.85,375.16 162.06,926.76 196.18,1316.91 4.79,54.9 7.92,104.73 15.49,159.09 40.68,292.27 63.09,834.8 80.87,1131.06l96.8 1928.67c13.24,220.43 35.24,583.65 64.46,804.38 29,218.92 44.94,435.22 76.62,652.71 8.41,57.66 14.07,115.47 22.48,167.15 35.91,220.81 62.76,441.72 107.7,661.04 22.65,110.46 43,222.3 62.73,332.89l71.23 335.17c97.02,459.69 223.77,907.58 352.82,1358.88l212.33 682.87c0.35,1.77 0.66,5.01 0.91,6.44 0.22,1.41 0.8,4.24 0.7,6.38z"></path>
 </g>
</svg>