<svg xmlns="http://www.w3.org/2000/svg" xml:space="preserve" width="263.069mm" height="263.069mm" version="1.1" style="shape-rendering:geometricPrecision; text-rendering:geometricPrecision; image-rendering:optimizeQuality; fill-rule:evenodd; clip-rule:evenodd" viewBox="0 0 26305.86 26305.86" xmlns:xlink="http://www.w3.org/1999/xlink" xmlns:xodm="http://www.corel.com/coreldraw/odm/2003">
 <defs>
  <style type="text/css">
   
    .fil1 {fill:#1381C5}
    .fil0 {fill:#1482C6}
   
  </style>
 </defs>
 <g id="Layer_x0020_1">
  <metadata id="CorelCorpID_0Corel-Layer"></metadata>
  <path class="fil0" d="M13152.93 0c7264.16,0 13152.93,5888.77 13152.93,13152.93 0,7264.16 -5888.77,13152.93 -13152.93,13152.93 -7264.16,0 -13152.93,-5888.77 -13152.93,-13152.93 0,-7264.16 5888.77,-13152.93 13152.93,-13152.93zm0 1000.46c6711.62,0 12152.47,5440.85 12152.47,12152.47 0,6711.62 -5440.85,12152.47 -12152.47,12152.47 -6711.62,0 -12152.47,-5440.85 -12152.47,-12152.47 0,-6711.62 5440.85,-12152.47 12152.47,-12152.47z"></path>
  <path class="fil0" d="M11023.33 21383.23c-424.75,-77.95 -757.56,231.63 -819.81,575.26 -76.81,423.92 232.78,758.91 577.82,819.91 427.02,75.5 757.29,-235.06 816.94,-572.63 75.48,-427.14 -224.23,-758.18 -574.95,-822.54zm6477.96 470.05c306.69,89.56 163.1,558.77 -143.32,455.3 -280.73,-94.8 -173.03,-547.68 143.32,-455.3zm1400.17 -2377.04c0,680.09 124.28,575.46 -665.57,372.26 -60.53,-15.57 -121.71,-24.6 -167.41,-59.95 -97.13,-75.13 -54.04,-41.43 -167.1,-39.2 -60.38,1.2 -637.73,-158.94 -738.95,-186.8 -178.85,-49.23 -135.11,-141.24 -135.06,-326.06 0.1,-309.03 0.07,-618.06 0,-927.07 -0.03,-152.48 -42.05,-316.43 125.03,-328.86 137.79,-10.25 320.04,-0.2 462.72,-0.2 505.78,0 378.6,-45.12 607.26,313.09l531.75 859.46c63.45,97.85 147.34,191.65 147.34,323.34zm-2419.66 550.99c129.03,30.85 140.03,182.19 52.57,239.41 -50.77,33.2 -316.93,32.29 -386.39,19.37 -105.83,-19.69 -150.76,-177.18 -43.92,-242.65 43.78,-26.83 312.47,-31.74 377.74,-16.13zm154.12 -2041.05c102.74,32.9 90.45,89.82 89.36,211.2l0.5 1183.88c-1.79,119.81 -27.15,161.91 -148.44,166.94 -85.19,3.53 -535.46,8.95 -587.39,-12.01 -110.09,-44.45 -68.25,-400.14 -68.25,-523.49l-0.67 -880.11c2.77,-114.26 31.9,-150.29 143.07,-153.08 87.19,-2.19 523.95,-8.65 571.82,6.67zm-9102.86 1214.69c-348.47,-19.79 -651.16,70.55 -595.28,-108.02 141.28,-44.36 1647.65,-13.05 1934.12,-13.16l5338.63 -0.23c321.06,0 391.28,-40.91 385.55,99.25 -114.5,43.3 -558.59,15.27 -729.76,19.63l-3.75 996.75c11.89,113.14 34.7,236.76 -108.33,198.5l-7.03 -1196.39 -1135.61 3.3 -9.51 1194.03c-132.44,31.68 -106.29,-86.56 -100.15,-214.99 13.79,-288.94 -4.66,-679.98 -7.43,-982.3l-1133.83 1.23 -1.53 965.09c0.16,78.84 30.72,238.45 -58.11,239.19 -90.78,0.76 -58.9,-173.53 -58.85,-255.18l-0.15 -950.31 -1078.13 1.31 -0.22 964.98c0.09,77.01 31.94,246.71 -59.89,240.08 -91.85,-6.63 -58.21,-194.55 -58.18,-272.05 0.1,-223.84 12.22,-774.61 -3.49,-932.62l-1125.65 2.8c-15.35,160.4 -3.14,717.74 -2.89,945.8 0.09,77.39 31.16,248.99 -58.96,255.92 -93.81,7.21 -60.8,-177.85 -60.76,-255.92l0.17 -950.45 -1134.26 4.88 -0.13 961.56c0.11,62.12 32.9,250.24 -64.27,239.51 -88.22,-9.75 -56.25,-193.71 -56.26,-271.48 -0.02,-187.33 12.75,-833.59 -6.09,-930.71zm-34.29 2880.83c-19.71,122.27 -169.71,87.62 -289.2,87.54 -471.32,-0.33 -401.76,79.66 -401.76,-503.21 0,-154.27 -28.43,-383.1 26.87,-499.98 143.92,-31.62 561.39,-11.38 742.55,-11.81 418.31,-0.98 209.11,117 82.5,338.48 -137,239.66 -115.29,305.73 -160.95,588.99zm7484.83 -1383.13c26.51,-576.1 1.72,-1214.74 1.72,-1797.75 0,-271 -19.8,-1630.5 16.52,-1781.95 157.31,-53.91 370.19,8.46 543.4,-29.51l-1.65 -134.21 -805.1 8.28 -21.29 1458.53c1,149.46 -1.9,134.26 -43.01,161.38 -66.27,43.72 -3860.79,20.37 -4267.83,20.37 -307.15,0 -3034.55,24.49 -3204.37,-14.44 -237.61,-54.47 -377.94,-278.32 -521.73,-486.25l-30.12 -40.44 -201.1 -1.29 4.24 2006.35c0,141.7 -37.73,539.72 37.02,625.01 89.52,37.67 3805.78,13.58 4251.73,13.58 240.47,0 4115.49,20.92 4241.57,-7.67zm711.84 -3465.71c-44.21,62.3 -86.3,39.49 -238.15,39.24 -97.09,-0.15 -194.22,0.74 -291.26,-0.58 -22.35,214.37 -3.15,2849.72 -3.84,3356.39 -0.23,164.64 -43.14,253.52 -216.39,253.52l-8359.59 0c-340.27,0 -308.72,-207.4 -308.73,-510.09 -0.01,-375.58 -25.63,-2331.66 26.21,-2423.28 46.88,-82.85 228.79,-41.7 424.09,-51.94l255.15 321.15c87.18,114.91 157.57,210.42 370.51,210.42l7186.7 -0.27c0.88,-273.45 0.17,-547.43 0.17,-821.3 0,-187.97 -49.24,-650.24 59.63,-761.59 114.37,-116.99 566.92,-65.91 761.45,-65.91 97.99,-0.01 320.78,-41.56 353.33,61.83 21.43,68.03 19.24,351.45 -19.27,392.4zm2440.35 4928.68c43.68,-417.37 -254.22,-741.03 -616.68,-784 -411.17,-48.74 -754.05,259.12 -789.98,629.24 -40.32,415.32 259.24,731.64 615.85,776.18 410.21,51.23 752.9,-259.19 790.81,-621.42zm646.15 -176.07c77.33,13.03 306.12,16.08 381.98,0.05 97.97,-20.71 161.29,-86.83 176.55,-192.92l4.77 -2221.58c-2.98,-120.76 -200.36,-372.36 -270.65,-483.31l-865.23 -1340.71c-118.76,-175.26 -302.09,-180.02 -578.28,-180l-1470.52 0c-244.67,0 -481.72,0.54 -538.42,206.72 -36.54,132.85 -9.59,2591.14 -12.21,2959.59 375.34,0 750.7,0 1126.04,0 622.73,0 1274.79,-86.65 1721.15,474.31 285.8,359.16 229.82,420.5 324.8,777.85zm906.81 -3619.96c45.08,-16.23 137.56,-22.38 193.18,-6.18 59.34,17.29 63.5,56.2 84.15,124.97 74.12,246.96 85.96,494.15 46.37,750.42 -39.56,256.18 -38.5,150.95 -193.96,209.55 -22.19,243.41 31.1,422.68 -292.94,424.07 -22.94,119.55 -6.94,1400.21 -6.94,1637.85 0,299.49 2.95,499.33 -216,616.77 -150.69,80.81 -566.57,37.68 -767.28,48.14 -43.1,180.86 -44.3,258.9 -125.22,417.79 -381.37,748.75 -1526.03,827.52 -1959.09,-14.56 -72.27,-140.51 -81.3,-242.34 -121.25,-405.23l-659.56 -0.58c29.21,-257 -118.35,-111.3 -122.15,-283.34 145.99,13.32 -29.65,45.55 127.53,47.19 -1.67,-120.74 -80.92,-139.52 -177.89,-90.51 -34.75,79.56 -23.24,220.04 -17.74,322.09 -247.92,24.77 -595.18,5.29 -853.85,5.29 -413.8,0 -2405.43,22.66 -2530.88,-19.85 -79.17,-210.61 10.38,-387.99 -246.86,-759.4 -11.77,-17 -190.05,-178.32 -30.51,-230.42 79.15,-25.84 3389.25,24.3 3615.51,-10.86 29.29,-978.9 5.15,-2159.47 0.5,-3174.96 -1.02,-223.84 36.78,-350.19 167.85,-463.62 154.89,-134.06 284.83,-118.95 526.87,-118.94 364.93,0.04 1699.32,-25.52 1875.37,17.92 183.37,45.24 295.18,149.83 370.17,269.67l991.94 1533.19c134.25,212.51 152.37,163.63 152.37,476.74 169.64,8.7 120.57,-106.33 120.5,-260.42l-0.01 -735.26c-0.01,-107.64 -28.87,-266.75 49.81,-327.53zm-10880.64 3022.55c-429.97,-85.64 -767.21,214.87 -833.34,563.57 -78.2,412.39 220.36,759.19 554.97,822.87 930.77,177.14 1188.21,-1205.24 278.37,-1386.43zm-68.01 465.7c316.33,100.42 153.39,549.08 -143.12,455.46 -278.66,-87.98 -175.81,-556.71 143.12,-455.46zm939.75 323.77c-45.58,530.53 -522.32,970.32 -1111.44,911.3 -525.13,-52.61 -958.05,-514.87 -906.91,-1101.8 46.19,-530.13 520.58,-974.69 1114.89,-914.64 523.05,52.85 954.18,514.69 903.46,1105.14zm1091.66 -286.11c124.08,-9.02 -48.38,39.89 98.39,40.23 21.84,-37.51 9.87,-47.1 -4.31,-87.38 199.99,-12.66 348.76,176.22 247.56,352.77 -68.43,119.38 -277.72,207.32 -423.44,-0.33 -63.24,-133.19 -23.79,-249.99 81.81,-305.29zm1133.41 334.07c-61.66,502.02 -549.59,941.28 -1144.1,858.51 -512.25,-71.32 -944.78,-543.87 -864.06,-1143.44 69.42,-515.57 542.22,-943.85 1146.29,-863.95 517.65,68.48 936.21,543.54 861.87,1148.88z"></path>
  <path class="fil0" d="M10192.21 15843.6l0 -424.84 0 -7618.03 -1765.46 0 -988.83 596.86 0 7021.18 0 424.84 -424.84 0 -3863.94 0 0 -424.84 3863.94 0 0 -7218.81 1413.67 -824.07 1765.46 0 424.84 0 0 424.84 0 7618.03 4376.62 0 0 424.84 -4376.62 0 -424.84 0zm-1871.55 -7742.67l263.86 -161.31 160.98 -4.8 0 7483.94 304.02 0 0 -5548.8 0 -424.84 424.84 0 567.43 0 0 424.84 -567.43 0 0 5548.8 0 424.84 -424.84 0 -304.02 0 -424.84 0 0 -424.84 0 -7317.83zm-2446.96 -2940.88l0 10053.59 -424.84 0 0 -10291.77 1667.25 -864.65 1555.74 864.65 0 2314.71 -265.86 0 -158.98 91.37 0 -2135.03 -1157.35 -644.61 -1215.95 611.75zm5870.87 4285.07l-424.84 0 -567.42 0 0 424.84 567.42 0 0 5413.26 424.84 0 0 -5413.26 0 -424.84z"></path>
  <path class="fil1" d="M20743.9 11234.94l664.52 0 0 901.84 -664.52 0 0 -901.84zm-8985.17 -500.65l750.82 -281.8c15.36,-7.22 7.08,-2.75 16.21,-8.65l4.17 -3953.82 1303.14 -0.38c10.01,283.41 2.05,579.2 2.79,861.04l6.42 2492.25c0,16.13 -0.81,35.73 0.15,51.45 0.23,3.73 1.29,15.75 2.18,19.98l8.88 25.31c70.11,14.71 474.35,-152.2 567.04,-186.51 294.33,-108.94 1485.34,-595.18 1689.26,-619.68l2.88 1244.28c33.57,3.41 1548.01,-560.53 1717.7,-624.42 159.84,-60.17 1688.7,-626.74 1714.8,-626.59l5.13 1161.53c112.18,-18.46 293.02,-95.42 404.92,-134.75 646.62,-227.27 1326.11,-522.09 1967.32,-738.14 171.72,-57.86 645.7,-279.02 797.06,-284.7l-0.01 6286.29 -10959.94 1.71 -0.92 -4684.38zm2205.5 -5609.75c263.26,-0.4 536.62,33.21 771.27,-63.98 190.16,-78.76 320.77,-254.44 383.53,-447.78l276.62 135.2c-10.99,94.05 -97.99,238.82 -144.28,298.27 -218.23,280.21 -557.6,389.58 -939.06,391.05 -667.66,2.56 -1066.78,-101.45 -1105.58,658.67l-299.77 -22.9c-28.92,-95.15 32.7,-349.48 64.7,-434.91 49.38,-131.87 116.64,-233.17 197.11,-301.42 211.94,-179.77 451.46,-211.68 795.46,-212.21zm23.73 -439.84c-333.26,0 -593.72,25.29 -849.21,147.56 -441.42,211.26 -657.36,675.27 -677.56,1141.94 -0.69,15.66 2.14,42.85 0.7,56.08 -3.54,32.61 4.87,21.69 -24.24,31.15 -10.09,3.27 -28.82,5.27 -44.99,10.38 -181.75,57.41 -304.64,231.29 -303.43,440.2 7.05,1209.57 0.1,2421.39 0.1,3631.22l-486.03 178.47c-81.9,32.64 -140.85,77.14 -191.1,141.16 -45.42,57.89 -90.22,143.63 -90.22,242.04l0 4754.46c0,137.7 110.57,288.96 239.84,353.48 35.57,17.75 106.57,42.07 155.7,42.07l11043.66 0c44.25,0 123.57,-25.91 155.75,-42.02l118.91 -86.78c66.56,-73.31 120.89,-179.21 120.89,-282.57l0 -6352.47c0,-193.7 -197.68,-403.45 -435.1,-403.45 -217.78,0 -650.88,206.99 -869.27,285.72l-1783.2 669.19c-30.06,11.77 -59.26,20.49 -84.71,33.95 0,-277.74 48.18,-631.59 -78.95,-807.08 -29.8,-41.14 -49.03,-59.56 -89.56,-92.39 -32.17,-26.06 -73.56,-51.83 -115.13,-66.84 -203.84,-73.57 -326.46,10.35 -542.15,85.15l-2323.97 856.23c-33.83,12.61 -58.63,22.49 -92.77,33.82l-190.83 70.23c0,-165.63 17.91,-600.78 -12.79,-722.93 -53.72,-213.76 -223.11,-337.14 -446.05,-337.14 -190.13,0 -726.16,227.54 -926.5,299.69 -73.7,26.55 -141.31,54.49 -217.24,83.38l-667.85 257.72c0,-305.89 0,-611.79 0,-917.66 0,-314.49 -7.91,-609.41 -7.91,-917.67 0,-161.76 15.19,-1021.22 -15.63,-1131.44 -47.3,-169.15 -221.67,-316.26 -379.91,-316.26l-221.51 0 18.27 -132.03c9.88,-34.46 -1.23,-21.51 22.98,-32.41 17.84,-8.02 163.42,-17.51 196.08,-17.51 497.52,0 860.82,44.57 1312.82,-213.98 38.62,-22.09 77.73,-46.7 115.74,-74.13 40.04,-28.89 68.55,-55.34 105.07,-84.81 186.95,-150.87 412.47,-515.42 412.47,-750.43 0,-274.32 -187.88,-368.93 -353.4,-445.61 -99.17,-45.95 -238.1,-131.88 -358.6,-131.88 -196.37,0 -364.64,127.05 -423.49,296.4 -71.1,204.53 -140.89,201.2 -310.96,219.07 -128.44,13.5 -262.62,-1.26 -404.72,-1.26zm-1912.09 10424.26l10325.92 -1.48c23.27,-81.72 18.63,-709.35 -5.1,-793.49l-10311.73 2c-35.52,83.58 -26.91,681.04 -9.09,792.97zm2750.66 -2972.17l-680.34 0 0 -909.75 688.24 0 0 379.72c0,185.82 -7.9,344.56 -7.9,530.03zm-1120.63 -1342.14c-3.78,296.23 -0.41,594.73 -0.53,891.21 -0.04,119.69 -20.1,825.54 13.63,877.21 42.49,31.41 1224.63,16.21 1454.06,12.19 96.5,-1.69 92.79,-24.08 93.48,-113.89 2.17,-279.58 3.81,-559.22 4.33,-838.81 0.29,-157.5 15.78,-717.82 -14.7,-831.26 -41.58,-17.72 -976.71,-1.66 -1157.44,-0.87 -111.78,0.49 -288.92,-9.14 -392.82,4.2zm3818.26 440.29l688.25 0 0 909.75 -688.25 0 0 -909.75zm-420.28 1352.53l1526.36 -7.28c35.79,-207.73 20.52,-1074.31 17.93,-1337.34 -1.4,-142.31 5.36,-313.88 -9.81,-451.04l-1554.52 2.82c-11.79,78.14 2.01,1360.08 2.87,1579.48 0.31,77.43 -8.95,154.69 17.17,213.36zm3205.45 -16.38l1537.87 0.24 -2.11 -703.47 -2.11 -1075.6 -1539.25 0.89 5.6 1777.94z"></path>
 </g>
</svg>